<svg xmlns="http://www.w3.org/2000/svg" version="1.1" viewBox="0 0 124.44 144.00" id="svg2" sodipodi:docname="new-logo-dataspace.svg" inkscape:version="1.2.2 (732a01da63, 2022-12-09)" inkscape:export-filename="logo.svg" inkscape:export-xdpi="153.38" inkscape:export-ydpi="153.38" xml:space="preserve" xmlns:inkscape="http://www.inkscape.org/namespaces/inkscape" xmlns:sodipodi="http://sodipodi.sourceforge.net/DTD/sodipodi-0.dtd" xmlns:svg="http://www.w3.org/2000/svg" xmlns:rdf="http://www.w3.org/1999/02/22-rdf-syntax-ns#" xmlns:cc="http://creativecommons.org/ns#" xmlns:dc="http://purl.org/dc/elements/1.1/" width="124.44" height="144"><metadata><rdf:RDF xmlns:rdf="http://www.w3.org/1999/02/22-rdf-syntax-ns#" xmlns:dc="http://purl.org/dc/elements/1.1/"><rdf:Description><dc:creator>RealFaviconGenerator</dc:creator><dc:source>https://realfavicongenerator.net</dc:source></rdf:Description></rdf:RDF></metadata><metadata id="metadata159"><rdf:rdf><cc:work rdf:about=""><dc:format>image/svg+xml</dc:format><dc:type rdf:resource="http://purl.org/dc/dcmitype/StillImage"></dc:type></cc:work></rdf:rdf></metadata><sodipodi:namedview pagecolor="#ffffff" bordercolor="#666666" borderopacity="1" objecttolerance="10" gridtolerance="10" guidetolerance="10" inkscape:pageopacity="0" inkscape:pageshadow="2" inkscape:window-width="1920" inkscape:window-height="991" id="namedview157" showgrid="true" inkscape:zoom="2.0153513" inkscape:cx="99.982569" inkscape:cy="123.79976" inkscape:window-x="-9" inkscape:window-y="-9" inkscape:window-maximized="1" inkscape:current-layer="svg2" showguides="true" inkscape:showpageshadow="2" inkscape:pagecheckerboard="0" inkscape:deskcolor="#d1d1d1"><inkscape:grid type="xygrid" id="grid861" spacingx="0.16" spacingy="0.16" empspacing="4" units="pc"></inkscape:grid></sodipodi:namedview><defs id="defs4"><inkscape:path-effect effect="fillet_chamfer" id="path-effect1804" is_visible="true" lpeversion="1" nodesatellites_param="F,0,1,1,0,6.1962597,0,1 @ F,0,1,1,0,6.1962597,0,1 @ F,0,1,1,0,6.1962597,0,1 @ F,0,1,1,0,6.1962597,0,1 @ F,0,1,1,0,6.1962597,0,1 @ F,0,0,1,0,6.1962597,0,1" unit="px" method="auto" mode="F" radius="0" chamfer_steps="1" flexible="false" use_knot_distance="true" apply_no_radius="true" apply_with_radius="true" only_selected="false" hide_knots="false"></inkscape:path-effect><style type="text/css" id="style6">
    line, polyline, path, rect, circle {
      fill: none;
      stroke: #000000;
      stroke-linecap: round;
      stroke-linejoin: round;
      stroke-miterlimit: 10.00;
    }
  </style><mask maskUnits="userSpaceOnUse" id="mask4581"><polyline transform="translate(93.114,32.081)" points="2.285 37.429 2.285 106.799 62.105 141.486 121.926 106.799 121.926 37.429 62.105 2.743 2.285 37.429" style="fill:#dedccf;fill-opacity:1;fill-rule:nonzero;stroke:#008a00;stroke-width:4;stroke-linecap:round;stroke-linejoin:round;stroke-miterlimit:10;stroke-opacity:0.99004977" clip-path="url(#cpMHwxMjQuNDQxfDE0My45OTd8MC4xNDMxMzc=)" id="polyline4583"></polyline></mask><clipPath clipPathUnits="userSpaceOnUse" id="clipPath5085"><polyline transform="translate(-62.732692,-31.469154)" points="2.285 37.429 2.285 106.799 62.105 141.486 121.926 106.799 121.926 37.429 62.105 2.743 2.285 37.429" style="fill:#d5d2ca;fill-opacity:1;fill-rule:nonzero;stroke:none;stroke-width:4;stroke-linecap:round;stroke-linejoin:round;stroke-miterlimit:10;stroke-opacity:0.99004977" clip-path="url(#cpMHwxMjQuNDQxfDE0My45OTd8MC4xNDMxMzc=)" id="polyline5087"></polyline></clipPath><pattern id="EMFhbasepattern" patternUnits="userSpaceOnUse" width="6" height="6" x="0" y="0"></pattern><inkscape:path-effect effect="fillet_chamfer" id="path-effect1804-0" is_visible="true" lpeversion="1" nodesatellites_param="F,0,1,1,0,6.1962597,0,1 @ F,0,1,1,0,6.1962597,0,1 @ F,0,1,1,0,6.1962597,0,1 @ F,0,1,1,0,6.1962597,0,1 @ F,0,1,1,0,6.1962597,0,1 @ F,0,0,1,0,6.1962597,0,1" unit="px" method="auto" mode="F" radius="0" chamfer_steps="1" flexible="false" use_knot_distance="true" apply_no_radius="true" apply_with_radius="true" only_selected="false" hide_knots="false"></inkscape:path-effect></defs><rect width="100%" height="100%" style="fill:none;stroke:none;stroke-linecap:round;stroke-linejoin:round;stroke-miterlimit:10" id="rect8" x="-0.954" y="-1.3609837"></rect><rect x="-0.954" y="-1.2209691" width="124.44" height="143.71001" style="fill:none;stroke:none;stroke-width:1.07000005;stroke-linecap:round;stroke-linejoin:round;stroke-miterlimit:10" clip-path="url(#cpMHwxMjQuNDQxfDE0My44NTd8MC4xNDMxMzc=)" id="rect15"></rect><rect x="-1.094" y="-1.2209691" width="124.58" height="143.85001" style="fill:none;stroke:none;stroke-width:1.07000005;stroke-linecap:round;stroke-linejoin:round;stroke-miterlimit:10" clip-path="url(#cpMHwxMjQuNDQxfDE0My45OTd8MC4xNDMxMzc=)" id="rect27"></rect><path id="path420" style="fill:#fbfbfb;fill-opacity:1;stroke:none;stroke-width:4.82986;stroke-linecap:round;stroke-linejoin:round;stroke-miterlimit:10;stroke-opacity:1;paint-order:markers fill stroke" d="M 116.50106,109.53544 67.58612,137.7765 a 10.732235,10.732235 180 0 1 -10.732236,0 L 7.9389377,109.53544 A 10.732237,10.732237 60.000001 0 1 2.5728195,100.24105 V 43.758942 a 10.732236,10.732236 120 0 1 5.3661183,-9.29439 L 56.853885,6.2234952 a 10.732236,10.732236 1.3518133e-6 0 1 10.732236,2e-7 L 116.50106,34.464552 a 10.732237,10.732237 60.000001 0 1 5.36612,9.29439 l 0,56.482108 a 10.732238,10.732238 120 0 1 -5.36612,9.29439 z" inkscape:path-effect="#path-effect1804" inkscape:original-d="M 121.86718,106.43731 62.220002,140.87463 2.5728195,106.43731 V 37.562682 L 62.220003,3.1253654 121.86718,37.562682 Z"></path><path id="path8035" style="fill:#2681d6;fill-opacity:1;stroke:none;stroke-width:0.681;stroke-dasharray:none;stroke-opacity:1;paint-order:markers fill stroke" d="m 66.219998,29.487357 a 50,50 0 0 0 -49.999996,50 A 50,50 0 0 0 34.550076,118.0772 48.042706,48.042706 0 0 1 18.177032,81.979544 48.042706,48.042706 0 0 1 66.219998,33.936576 48.042706,48.042706 0 0 1 114.26297,81.979544 48.042706,48.042706 0 0 1 97.88992,118.0772 50,50 0 0 0 116.22,79.487357 a 50,50 0 0 0 -50.000002,-50 z"></path><g inkscape:label="WireframeSphere" transform="translate(66.220001,78)" id="g10859" style="stroke:none;stroke-width:2.3;stroke-linecap:round;stroke-linejoin:round;paint-order:stroke markers fill;fill:#133861;fill-opacity:1"><g inkscape:label="Lines of Longitude" id="g10847" style="stroke:none;fill:#133861;fill-opacity:1"><path style="color:#000000;fill:#133861;stroke:none;stroke-miterlimit:10;-inkscape-stroke:none;fill-opacity:1" d="m 0.00195313,-36.150391 c 0,0 -1.15232163,1.174895 -1.15234373,1.226563 -2.22e-5,0.05167 2.18e-5,0.128648 0,0.230469 -4.36e-5,0.203642 4.2e-5,0.506973 0,0.904297 -8.4e-5,0.794647 7.47e-5,1.96782 0,3.478515 -1.495e-4,3.02139 8.93e-5,7.396026 0,12.810547 v 35 c 8.93e-5,5.414521 -1.495e-4,9.789157 0,12.810547 7.47e-5,1.510695 -8.4e-5,2.683868 0,3.478515 4.2e-5,0.397324 -4.36e-5,0.700655 0,0.904297 2.18e-5,0.101821 -2.22e-5,0.178801 0,0.230469 2.21e-5,0.05167 0,0.07617 0,0.07617 a 1.150391,1.150391 0 0 0 2.3007812,-0.002 1.15,1.15 0 0 0 -0.050781,-0.125 c 0.0044,0.0022 0.050782,0.05112 0.050781,0.04883 -2.2e-5,-0.05134 2.18e-5,-0.12873 0,-0.230469 -4.35e-5,-0.203477 4.2e-5,-0.505062 0,-0.902344 -8.4e-5,-0.794563 7.48e-5,-1.967843 0,-3.478515 C 1.1502411,27.289202 1.1485268,22.914506 1.1484375,17.5 v -35 c 8.93e-5,-5.414506 0.0018,-9.789202 0.00195,-12.810547 7.48e-5,-1.510672 -8.4e-5,-2.683952 0,-3.478515 4.2e-5,-0.397282 -4.35e-5,-0.698867 0,-0.902344 2.18e-5,-0.101739 -2.2e-5,-0.17913 0,-0.230469 2.15e-5,-0.05006 -2.1e-6,-0.07487 0,-0.07617 a 1.15,1.15 0 0 0 0,-0.002 1.15,1.15 0 0 0 -1.14843747,-1.150391 z" id="path10839"></path><path style="color:#000000;fill:#133861;stroke:none;stroke-miterlimit:10;-inkscape-stroke:none;fill-opacity:1" d="m 0,-36.150391 c -8.9245163,10e-7 -16.947201,7.114328 -21.214844,18.238282 -4.267642,11.1239535 -4.267642,24.7002645 0,35.824218 C -16.947201,29.036063 -8.9245163,36.15039 0,36.150391 A 1.15,1.15 0 0 0 1.1503906,35 1.15,1.15 0 0 0 0,33.849609 c -7.6934658,0 -15.027011,-6.227619 -19.068359,-16.761718 -4.041349,-10.5341002 -4.041349,-23.6416818 0,-34.175782 C -15.027011,-27.62199 -7.6934658,-33.849609 0,-33.849609 A 1.15,1.15 0 0 0 1.1503906,-35 1.15,1.15 0 0 0 0,-36.150391 Z" id="path10841" transform="rotate(18.8817)"></path><path style="color:#000000;fill:#133861;stroke:none;stroke-miterlimit:10;-inkscape-stroke:none;fill-opacity:1" d="m 0,-36.150391 c -12.185788,10e-7 -23.430058,6.924527 -29.494141,18.101563 -6.064082,11.1770363 -6.064082,24.9206197 0,36.097656 C -23.430058,29.225864 -12.185788,36.15039 0,36.150391 A 1.15,1.15 0 0 0 1.1503906,35 1.15,1.15 0 0 0 0,33.849609 c -11.315293,0 -21.786198,-6.41742 -27.472656,-16.898437 -5.686459,-10.4810174 -5.686459,-23.4213266 0,-33.902344 C -21.786198,-27.432189 -11.315293,-33.849609 0,-33.849609 A 1.15,1.15 0 0 0 1.1503906,-35 1.15,1.15 0 0 0 0,-36.150391 Z" id="path10843" transform="rotate(90)"></path><path style="color:#000000;fill:#133861;stroke:none;stroke-miterlimit:10;-inkscape-stroke:none;fill-opacity:1" d="M 0,-36.150391 A 1.15,1.15 0 0 0 -1.1503906,-35 1.15,1.15 0 0 0 0,-33.849609 c 5.9546388,0 11.428787,3.629108 15.488281,9.738281 4.059494,6.109173 6.619141,14.6528471 6.619141,24.111328 0,9.4584809 -2.559647,18.002155 -6.619141,24.111328 C 11.428787,30.220501 5.9546388,33.849609 0,33.849609 A 1.15,1.15 0 0 0 -1.1503906,35 1.15,1.15 0 0 0 0,36.150391 c 6.8899486,0 13.044393,-4.207303 17.402344,-10.765625 C 21.760294,18.826443 24.40625,9.871466 24.40625,0 c 0,-9.871466 -2.645956,-18.826443 -7.003906,-25.384766 C 13.044393,-31.943088 6.8899486,-36.150391 0,-36.150391 Z" id="path10845" transform="rotate(-18.8817)"></path></g><g inkscape:label="Lines of Latitude" id="g10855" style="stroke:none;fill:#133861;fill-opacity:1"><path style="color:#000000;fill:#133861;stroke:none;stroke-miterlimit:10;-inkscape-stroke:none;fill-opacity:1" d="m -23.126953,25.189453 a 1.15,1.15 0 0 0 -0.789063,0.390625 1.15,1.15 0 0 0 0.107422,1.623047 c 2.113283,1.849847 5.460048,3.199417 9.589844,4.164062 4.129796,0.964646 9.0424044,1.503907 14.21875,1.503907 5.1763456,0 10.088954,-0.539261 14.21875,-1.503907 4.129796,-0.964645 7.476561,-2.314215 9.589844,-4.164062 a 1.15,1.15 0 0 0 0.107422,-1.623047 1.15,1.15 0 0 0 -1.623047,-0.107422 c -1.596275,1.397288 -4.677216,2.738553 -8.597656,3.654297 C 9.7748725,30.042697 5.0155784,30.572266 0,30.572266 c -5.0155784,0 -9.7748725,-0.529569 -13.695313,-1.445313 -3.92044,-0.915744 -7.001381,-2.257009 -8.597656,-3.654297 a 1.15,1.15 0 0 0 -0.833984,-0.283203 z" id="path10849"></path><path style="color:#000000;fill:#133861;stroke:none;stroke-miterlimit:10;-inkscape-stroke:none;fill-opacity:1" d="M -35,-1.1503906 A 1.15,1.15 0 0 0 -36.150391,0 c 0,2.7364217 2.059753,5.0822464 5.253907,6.9746094 3.194153,1.892363 7.671248,3.4348246 13.173828,4.5214846 11.0051593,2.17332 24.4401527,2.17332 35.445312,0 5.50258,-1.08666 9.979674,-2.6291216 13.173828,-4.5214846 C 34.090638,5.0822464 36.150391,2.7364218 36.150391,0 A 1.15,1.15 0 0 0 35,-1.1503906 1.15,1.15 0 0 0 33.849609,0 c 10e-7,1.5406523 -1.276419,3.3084642 -4.125,4.9960937 -2.84858,1.6876296 -7.120818,3.1922636 -12.447265,4.2441407 -10.6528949,2.1037546 -23.9017931,2.1037546 -34.554688,0 C -22.603791,8.1883573 -26.876029,6.6837233 -29.724609,4.9960937 -32.57319,3.3084642 -33.84961,1.5406523 -33.849609,0 A 1.15,1.15 0 0 0 -35,-1.1503906 Z" id="path10851"></path><path style="color:#000000;fill:#133861;stroke:none;stroke-miterlimit:10;-inkscape-stroke:none;fill-opacity:1" d="m 22.974609,-27.484375 a 1.15,1.15 0 0 0 -0.789062,0.388672 1.15,1.15 0 0 0 0.107422,1.623047 c 0.867891,0.759703 1.220861,1.431702 1.292968,1.986328 0.07211,0.554625 -0.08726,1.109672 -0.65625,1.798828 -1.137976,1.378311 -3.990643,2.957287 -8.283203,4.068359 -8.5851196,2.222145 -20.707847,2.222145 -29.292968,0 -4.292562,-1.111072 -7.145227,-2.690048 -8.283203,-4.068359 -0.568989,-0.689156 -0.728358,-1.244202 -0.65625,-1.798828 0.07211,-0.554626 0.425076,-1.226625 1.292968,-1.986328 a 1.15,1.15 0 0 0 0.107422,-1.623047 1.15,1.15 0 0 0 -1.623047,-0.107422 c -1.148108,1.004988 -1.894458,2.159408 -2.058593,3.421875 -0.164136,1.262467 0.303894,2.516763 1.164062,3.558594 1.720336,2.083662 4.939253,3.654645 9.480469,4.830078 9.0824293,2.350866 21.3628839,2.350866 30.445312,0 4.541214,-1.175433 7.760133,-2.746416 9.480469,-4.830078 0.860168,-1.041831 1.328198,-2.296127 1.164062,-3.558594 -0.164135,-1.262467 -0.910486,-2.416887 -2.058593,-3.421875 a 1.15,1.15 0 0 0 -0.833985,-0.28125 z" id="path10853"></path></g><path style="color:#000000;fill:#133861;stroke:none;stroke-miterlimit:10;-inkscape-stroke:none;fill-opacity:1" d="m 0,-36.150391 c -19.951452,0 -36.150391,16.198939 -36.150391,36.150391 0,19.951452 16.198939,36.150391 36.150391,36.150391 C 19.951452,36.150391 36.150391,19.951452 36.150391,0 36.150391,-19.951452 19.951452,-36.150391 0,-36.150391 Z m 0,2.300782 c 18.708441,0 33.849609,15.141168 33.849609,33.849609 0,18.708441 -15.141168,33.849609 -33.849609,33.849609 -18.708441,0 -33.849609,-15.141168 -33.849609,-33.849609 0,-18.708441 15.141168,-33.849609 33.849609,-33.849609 z" id="path10857"></path></g><path d="m 25.506202,32.977029 c -0.463477,-0.463477 -1.212927,-0.463477 -1.67147,0 l -4.407948,4.407948 -2.711824,-2.711823 c -0.61632,-0.616327 -1.617236,-0.616327 -2.233556,0 l -2.366681,2.366681 c -0.616327,0.61632 -0.616327,1.617236 0,2.233556 l 2.711823,2.711824 -4.407948,4.407948 c -0.4634772,0.463473 -0.4634772,1.212923 0,1.67147 l 4.733367,4.733366 c 0.463472,0.463473 1.212923,0.463473 1.671469,0 l 4.407944,-4.407948 0.764245,0.76424 c -0.562087,1.212928 -0.877644,2.563905 -0.877644,3.988847 0,1.562995 0.379652,3.032312 1.045283,4.329058 0.231739,0.443753 0.82341,0.507852 1.173478,0.15285 l 4.748156,-4.748157 2.958355,2.958353 c 0.616321,0.61632 1.61723,0.61632 2.233557,0 0.616321,-0.616327 0.616321,-1.617236 0,-2.233557 l -2.95835,-2.958358 4.748155,-4.748156 c 0.355002,-0.355003 0.290902,-0.94667 -0.15285,-1.173478 -1.296747,-0.670561 -2.770993,-1.045283 -4.329056,-1.045283 -1.424942,0 -2.775919,0.315557 -3.988847,0.877644 l -0.76424,-0.764245 4.407948,-4.403013 c 0.463473,-0.463477 0.463473,-1.212928 0,-1.671471 z m -0.8382,2.50967 3.061897,3.061897 -3.569748,3.569743 -3.061898,-3.061892 z m -8.677837,14.801631 -3.061897,-3.061897 3.569748,-3.569749 3.061892,3.061898 z" id="path463" style="fill:#2681d6;fill-opacity:1;stroke:#fbfbfb;stroke-width:5.249;stroke-dasharray:none;stroke-opacity:1;paint-order:stroke markers fill"></path><path id="path420-8" style="fill:none;fill-opacity:1;stroke:#133861;stroke-width:4.82986;stroke-linecap:round;stroke-linejoin:round;stroke-miterlimit:10;stroke-opacity:1;paint-order:markers fill stroke" d="M 116.50106,109.53544 67.586119,137.7765 a 10.732235,10.732235 180 0 1 -10.732236,0 L 7.9389393,109.53544 A 10.732237,10.732237 60.000002 0 1 2.5728212,100.24105 V 43.758946 a 10.732237,10.732237 120 0 1 5.3661183,-9.29439 L 56.853883,6.2234992 a 10.732236,10.732236 1.6637703e-7 0 1 10.732236,0 L 116.50106,34.464556 a 10.732237,10.732237 60.000001 0 1 5.36612,9.29439 l 0,56.482104 a 10.732237,10.732237 120 0 1 -5.36612,9.29439 z" inkscape:path-effect="#path-effect1804-0" inkscape:original-d="M 121.86718,106.43731 62.220001,140.87463 2.5728212,106.43731 V 37.562686 L 62.220001,3.1253692 121.86718,37.562686 Z"></path></svg>