<?xml version="1.0" encoding="UTF-8" standalone="no"?>
<svg
   viewBox="0 0 124.44 144.00"
   id="svg2"
   version="1.1"
   sodipodi:docname="dataspace-logo.svg"
   inkscape:version="1.2.2 (732a01da63, 2022-12-09)"
   inkscape:export-filename="logo.svg"
   inkscape:export-xdpi="153.38"
   inkscape:export-ydpi="153.38"
   xml:space="preserve"
   xmlns:inkscape="http://www.inkscape.org/namespaces/inkscape"
   xmlns:sodipodi="http://sodipodi.sourceforge.net/DTD/sodipodi-0.dtd"
   xmlns="http://www.w3.org/2000/svg"
   xmlns:svg="http://www.w3.org/2000/svg"
   xmlns:rdf="http://www.w3.org/1999/02/22-rdf-syntax-ns#"
   xmlns:cc="http://creativecommons.org/ns#"
   xmlns:dc="http://purl.org/dc/elements/1.1/"><metadata
     id="metadata159"><rdf:RDF><cc:Work
         rdf:about=""><dc:format>image/svg+xml</dc:format><dc:type
           rdf:resource="http://purl.org/dc/dcmitype/StillImage" /></cc:Work></rdf:RDF></metadata><sodipodi:namedview
     pagecolor="#ffffff"
     bordercolor="#666666"
     borderopacity="1"
     objecttolerance="10"
     gridtolerance="10"
     guidetolerance="10"
     inkscape:pageopacity="0"
     inkscape:pageshadow="2"
     inkscape:window-width="1920"
     inkscape:window-height="991"
     id="namedview157"
     showgrid="true"
     inkscape:zoom="1.74"
     inkscape:cx="84.195402"
     inkscape:cy="123.85057"
     inkscape:window-x="-9"
     inkscape:window-y="-9"
     inkscape:window-maximized="1"
     inkscape:current-layer="svg2"
     showguides="true"
     inkscape:showpageshadow="2"
     inkscape:pagecheckerboard="0"
     inkscape:deskcolor="#d1d1d1"><inkscape:grid
       type="xygrid"
       id="grid861"
       spacingx="0.16"
       spacingy="0.16"
       empspacing="4"
       units="pc" /></sodipodi:namedview><defs
     id="defs4"><style
       type="text/css"
       id="style6">
    line, polyline, path, rect, circle {
      fill: none;
      stroke: #000000;
      stroke-linecap: round;
      stroke-linejoin: round;
      stroke-miterlimit: 10.00;
    }
  </style><mask
       maskUnits="userSpaceOnUse"
       id="mask4581"><polyline
         transform="translate(93.114,32.081)"
         points="2.285 37.429 2.285 106.799 62.105 141.486 121.926 106.799 121.926 37.429 62.105 2.743 2.285 37.429"
         style="fill:#dedccf;fill-opacity:1;fill-rule:nonzero;stroke:#008a00;stroke-width:4;stroke-linecap:round;stroke-linejoin:round;stroke-miterlimit:10;stroke-opacity:0.99004977"
         clip-path="url(#cpMHwxMjQuNDQxfDE0My45OTd8MC4xNDMxMzc=)"
         id="polyline4583" /></mask><clipPath
       clipPathUnits="userSpaceOnUse"
       id="clipPath5085"><polyline
         transform="translate(-62.732692,-31.469154)"
         points="2.285 37.429 2.285 106.799 62.105 141.486 121.926 106.799 121.926 37.429 62.105 2.743 2.285 37.429"
         style="fill:#d5d2ca;fill-opacity:1;fill-rule:nonzero;stroke:none;stroke-width:4;stroke-linecap:round;stroke-linejoin:round;stroke-miterlimit:10;stroke-opacity:0.99004977"
         clip-path="url(#cpMHwxMjQuNDQxfDE0My45OTd8MC4xNDMxMzc=)"
         id="polyline5087" /></clipPath></defs><rect
     width="100%"
     height="100%"
     style="fill:none;stroke:none;stroke-linecap:round;stroke-linejoin:round;stroke-miterlimit:10"
     id="rect8"
     x="-0.954"
     y="-1.3609837" /><rect
     x="-0.954"
     y="-1.2209691"
     width="124.44"
     height="143.71001"
     style="fill:none;stroke:none;stroke-width:1.07000005;stroke-linecap:round;stroke-linejoin:round;stroke-miterlimit:10"
     clip-path="url(#cpMHwxMjQuNDQxfDE0My44NTd8MC4xNDMxMzc=)"
     id="rect15" /><rect
     x="-1.094"
     y="-1.2209691"
     width="124.58"
     height="143.85001"
     style="fill:none;stroke:none;stroke-width:1.07000005;stroke-linecap:round;stroke-linejoin:round;stroke-miterlimit:10"
     clip-path="url(#cpMHwxMjQuNDQxfDE0My45OTd8MC4xNDMxMzc=)"
     id="rect27" /><polyline
     points="2.285 37.429 2.285 106.799 62.105 141.486 121.926 106.799 121.926 37.429 62.105 2.743 2.285 37.429"
     style="fill:#d5d2ca;fill-opacity:1;fill-rule:nonzero;stroke:none;stroke-width:4;stroke-linecap:round;stroke-linejoin:round;stroke-miterlimit:10;stroke-opacity:0.99004977"
     clip-path="url(#cpMHwxMjQuNDQxfDE0My45OTd8MC4xNDMxMzc=)"
     id="polyline29"
     transform="translate(-0.95399999,-1.3609688)" /><g
     id="g5036"
     transform="translate(62.053692,31.719191)"
     style="stroke:#d0b972;stroke-opacity:0.98407647"
     clip-path="url(#clipPath5085)"><g
       id="path4967"><path
         style="color:#000000;fill:#d0b972;fill-opacity:0.984076;stroke:none;stroke-linecap:round;stroke-linejoin:round;stroke-miterlimit:10;stroke-opacity:1;-inkscape-stroke:none;paint-order:markers stroke fill"
         d="m -25,-7.0644531 c -8.860015,0 -16.064453,7.20443777 -16.064453,16.0644531 0,8.860015 7.204438,16.064453 16.064453,16.064453 8.860015,0 16.0644531,-7.204438 16.0644531,-16.064453 0,-8.86001533 -7.2044381,-16.0644531 -16.0644531,-16.0644531 z m 0,2.1289062 c 7.708511,0 13.935547,6.2270363 13.935547,13.9355469 0,7.708511 -6.227036,13.935547 -13.935547,13.935547 -7.708511,0 -13.935547,-6.227036 -13.935547,-13.935547 0,-7.7085106 6.227036,-13.9355469 13.935547,-13.9355469 z"
         id="path420" /><path
         style="color:#000000;fill:#d0b972;stroke:none;stroke-width:2.13068;stroke-linecap:round;stroke-linejoin:round;stroke-miterlimit:10;stroke-opacity:1;-inkscape-stroke:none;paint-order:markers stroke fill"
         d="M -10,9 A 15,15 0 0 1 -25,24 15,15 0 0 1 -40,9 15,15 0 0 1 -25,-6 15,15 0 0 1 -10,9 Z"
         id="path422" /></g><path
       style="color:#000000;fill:#d0b972;fill-opacity:0.984076;stroke:none;stroke-linecap:round;stroke-linejoin:round;stroke-miterlimit:10;stroke-opacity:1;-inkscape-stroke:none;paint-order:markers stroke fill"
       d="m -25,-14 c -12.677473,0 -23,10.3225263 -23,23 0,12.677474 10.322527,23 23,23 12.677473,0 23,-10.322526 23,-23 0,-12.6774737 -10.322527,-23 -23,-23 z m 0,4.2324219 c 10.390332,0 18.7675781,8.3772446 18.7675781,18.7675781 0,10.390333 -8.3772461,18.767578 -18.7675781,18.767578 -10.390332,0 -18.767578,-8.377245 -18.767578,-18.767578 0,-10.3903335 8.377246,-18.7675781 18.767578,-18.7675781 z"
       id="path4969" /><path
       id="path657"
       style="color:#000000;fill:#d0b972;fill-opacity:0.984076;stroke:none;stroke-linecap:round;stroke-linejoin:round;stroke-miterlimit:10;stroke-opacity:1;-inkscape-stroke:none;paint-order:markers stroke fill"
       d="M -14.930645 -20.289503 L -19.922833 -17.394972 C -7.4883534 -15.025626 1.8857611 -4.1357789 1.8857611 8.999559 C 1.8857611 23.873145 -10.127371 35.886278 -25.000958 35.886278 C -39.874544 35.886278 -51.887676 23.873145 -51.887676 8.999559 C -51.887676 5.9455074 -51.356589 3.0241821 -50.422833 0.29057463 L -55.436504 3.1987778 C -55.794365 5.0803446 -56.000958 7.0152173 -56.000958 8.999559 C -56.000958 26.095994 -42.097393 39.999559 -25.000958 39.999559 C -7.9045229 39.999559 5.9990424 26.095994 5.9990424 8.999559 C 5.9990424 -4.5686715 -2.7703101 -16.097227 -14.930645 -20.289503 z " /><path
       id="path4969-3-3"
       style="color:#000000;fill:#d0b972;fill-opacity:0.984076;stroke:none;stroke-linecap:round;stroke-linejoin:round;stroke-miterlimit:10;stroke-opacity:1;-inkscape-stroke:none;paint-order:markers stroke fill"
       d="M -6.3681451 -25.254347 L -10.526348 -22.844191 C 1.5785411 -17.342429 9.9951361 -5.1817327 9.9951361 8.999559 C 9.9951361 28.351462 -5.6490572 43.995653 -25.000958 43.995653 C -43.036069 43.995653 -57.835912 30.403543 -59.768536 12.890184 L -59.768536 26.642137 C -53.320487 39.306213 -40.167641 47.999559 -25.000958 47.999559 C -3.4856043 47.999559 13.999042 30.514914 13.999042 8.999559 C 13.999042 -5.7699797 5.7584121 -18.635794 -6.3681451 -25.254347 z " /><path
       id="path4969-3-3-6"
       style="color:#000000;fill:#d0b972;fill-opacity:0.984076;stroke:none;stroke-linecap:round;stroke-linejoin:round;stroke-miterlimit:10;stroke-opacity:1;-inkscape-stroke:none;paint-order:markers stroke fill"
       d="M 8.1924018 -24.2563 L 0.05177675 -28.977003 L -2.3720514 -27.572707 C 9.8585036 -19.996983 17.997089 -6.463796 17.997089 8.999559 C 17.997089 32.770623 -1.2298959 51.997606 -25.000958 51.997606 C -39.304286 51.997606 -51.954381 45.029989 -59.768536 34.3062 L -59.768536 40.605028 C -51.167931 50.058901 -38.771256 55.999559 -25.000958 55.999559 C 0.93267445 55.999559 21.999042 34.933193 21.999042 8.999559 C 21.999042 -3.9836378 16.719631 -15.745472 8.1924018 -24.2563 z " /></g><path
     id="text3017-2"
     style="font-style:normal;font-weight:normal;font-size:18.6667px;line-height:0.85;font-family:sans-serif;letter-spacing:0px;word-spacing:0px;fill:#ffffff;fill-opacity:1;stroke:none"
     d="m 115.74164,60.88789 -1.73047,0.50195 c -0.0471,0.15411 -0.11102,0.29294 -0.19336,0.41797 -0.15799,0.24306 -0.38216,0.43815 -0.67383,0.58398 -0.24913,0.12153 -0.58094,0.20899 -0.99414,0.26368 -0.41319,0.05468 -0.82877,0.08203 -1.24805,0.08203 v 2.21484 h 2.86133 v 7.17383 h -2.86133 v 2.36914 h 8.96875 v -2.36914 h -2.79882 V 60.88789 Z m -8.08594,2.34765 -3.10351,0.90039 c 0.007,0.01601 0.0168,0.02657 0.0234,0.04297 0.27952,0.67448 0.41992,1.85026 0.41992,3.52735 0,1.66493 -0.1404,2.84244 -0.41992,3.53515 -0.27951,0.68664 -0.74435,1.03125 -1.39453,1.03125 -0.65017,0 -1.11502,-0.34461 -1.39453,-1.03125 -0.27951,-0.69271 -0.41797,-1.8648 -0.41797,-3.51757 0,-1.14702 0.0684,-2.04156 0.19727,-2.72071 l -3.544928,1.0293 c -0.04621,0.51642 -0.07031,1.07587 -0.07031,1.68164 0,1.16667 0.09288,2.1875 0.28125,3.0625 0.18837,0.86892 0.48915,1.60178 0.90235,2.19727 0.41927,0.60156 0.960718,1.0536 1.623038,1.35742 0.66233,0.29774 1.46984,0.44726 2.42383,0.44726 0.96007,0 1.77127,-0.14952 2.4336,-0.44726 0.66232,-0.30382 1.20008,-0.75044 1.61328,-1.33985 0.41319,-0.58941 0.71397,-1.324 0.90234,-2.20507 0.18837,-0.88108 0.2832,-1.90734 0.2832,-3.08008 0,-1.13629 -0.0948,-2.14258 -0.2832,-3.01758 -0.11252,-0.5401 -0.27411,-1.01952 -0.47461,-1.45313 z m -11.181638,3.2461 -3.36914,0.97851 c 7.8e-4,0.08584 0.0059,0.15746 0.0059,0.2461 0,1.66493 -0.14041,2.84244 -0.41992,3.53515 -0.27952,0.68664 -0.74436,1.03125 -1.39453,1.03125 -0.65018,0 -1.11502,-0.34461 -1.39454,-1.03125 -0.23193,-0.5748 -0.360908,-1.49851 -0.400386,-2.73437 l -3.34961,0.9707 c 0.04674,0.46053 0.109271,0.89915 0.195313,1.29883 0.188368,0.86892 0.489149,1.60178 0.902344,2.19727 0.419271,0.60156 0.96072,1.0536 1.623047,1.35742 0.662326,0.29774 1.469832,0.44726 2.423832,0.44726 0.96007,0 1.77126,-0.14952 2.43359,-0.44726 0.66233,-0.30382 1.20009,-0.75044 1.61328,-1.33985 0.4132,-0.58941 0.71398,-1.324 0.90234,-2.20507 0.18837,-0.88108 0.28321,-1.90734 0.28321,-3.08008 0,-0.43284 -0.02736,-0.82969 -0.05469,-1.22461 z m -15.058594,4.37109 -3.308594,0.96094 v 0.3125 h -1.074218 l -1.78711,0.51953 v 1.84961 h 8.96875 v -2.36914 h -2.798828 z m -10.90039,3.16602 -2.560547,0.74218 c 0.772334,-0.03898 1.444199,-0.17807 2.003906,-0.42968 0.197324,-0.09052 0.38143,-0.19664 0.556641,-0.3125 z m 8.896484,2.54492 c -0.923612,0 -1.720269,0.14952 -2.388672,0.44726 -0.668403,0.29167 -1.215277,0.73829 -1.640625,1.33985 -0.431424,0.61371 -0.741319,1.34462 -0.929687,2.19531 -0.182292,0.8507 -0.273438,1.87891 -0.273438,3.08203 0,1.16667 0.09483,2.1875 0.283203,3.0625 0.188368,0.86893 0.489149,1.59983 0.902344,2.19531 0.419271,0.60157 0.958767,1.05556 1.621094,1.35938 0.662327,0.29774 1.471787,0.44531 2.425781,0.44531 0.96007,0 1.771267,-0.14757 2.433594,-0.44531 0.662327,-0.30382 1.200086,-0.75043 1.613281,-1.33984 0.413195,-0.58941 0.713976,-1.32596 0.902344,-2.20704 0.188368,-0.88107 0.28125,-1.90733 0.28125,-3.08007 0,-1.13629 -0.09288,-2.14258 -0.28125,-3.01758 -0.182292,-0.875 -0.481337,-1.60959 -0.894531,-2.20508 -0.419272,-0.60764 -0.957031,-1.06337 -1.613282,-1.36719 -0.650174,-0.30989 -1.463107,-0.46484 -2.441406,-0.46484 z m 23.769528,0 c -0.92361,0 -1.71831,0.14952 -2.38672,0.44726 -0.6684,0.29167 -1.215268,0.73829 -1.640618,1.33985 -0.43143,0.61371 -0.74132,1.34462 -0.92969,2.19531 -0.18229,0.8507 -0.27344,1.87891 -0.27344,3.08203 0,1.16667 0.09288,2.1875 0.28125,3.0625 0.18837,0.86893 0.48915,1.59983 0.90235,2.19531 0.41927,0.60157 0.960718,1.05556 1.623038,1.35938 0.66233,0.29774 1.46984,0.44531 2.42383,0.44531 0.96007,0 1.77127,-0.14757 2.4336,-0.44531 0.66232,-0.30382 1.20008,-0.75043 1.61328,-1.33984 0.41319,-0.58941 0.71397,-1.32596 0.90234,-2.20704 0.18837,-0.88107 0.2832,-1.90733 0.2832,-3.08007 0,-1.13629 -0.0948,-2.14258 -0.2832,-3.01758 -0.18229,-0.875 -0.47938,-1.60959 -0.89258,-2.20508 -0.41927,-0.60764 -0.95703,-1.06337 -1.61328,-1.36719 -0.65017,-0.30989 -1.46506,-0.46484 -2.44336,-0.46484 z m 11.88672,0 c -0.92361,0 -1.72027,0.14952 -2.38867,0.44726 -0.66841,0.29167 -1.21528,0.73829 -1.64063,1.33985 -0.43142,0.61371 -0.74132,1.34462 -0.92968,2.19531 -0.1823,0.8507 -0.27344,1.87891 -0.27344,3.08203 0,1.16667 0.0948,2.1875 0.2832,3.0625 0.18837,0.86893 0.48915,1.59983 0.90234,2.19531 0.41928,0.60157 0.95877,1.05556 1.6211,1.35938 0.66233,0.29774 1.47179,0.44531 2.42578,0.44531 0.96007,0 1.77127,-0.14757 2.43359,-0.44531 0.66233,-0.30382 1.20009,-0.75043 1.61329,-1.33984 0.41319,-0.58941 0.71397,-1.32596 0.90234,-2.20704 0.18837,-0.88107 0.28125,-1.90733 0.28125,-3.08007 0,-1.13629 -0.0929,-2.14258 -0.28125,-3.01758 -0.18229,-0.875 -0.48134,-1.60959 -0.89453,-2.20508 -0.41927,-0.60764 -0.95703,-1.06337 -1.61328,-1.36719 -0.65018,-0.30989 -1.46311,-0.46484 -2.44141,-0.46484 z M 66.56,76.8 c -0.02431,0.36458 -0.119141,0.67274 -0.283204,0.92187 -0.157986,0.24306 -0.382161,0.4362 -0.673828,0.58203 -0.249132,0.12153 -0.580946,0.21094 -0.99414,0.26563 -0.413195,0.05469 -0.828776,0.08203 -1.248047,0.08203 v 2.21484 h 2.861328 v 7.17188 h -2.861328 v 2.37109 h 8.96875 V 88.03828 H 69.530703 V 76.8 Z m 23.769532,0 c -0.02431,0.36458 -0.11719,0.67274 -0.28125,0.92187 -0.15799,0.24306 -0.38412,0.4362 -0.675782,0.58203 -0.249133,0.12153 -0.578993,0.21094 -0.992188,0.26563 -0.413195,0.05469 -0.830729,0.08203 -1.25,0.08203 v 2.21484 h 2.86328 v 7.17188 h -2.86328 v 2.37109 h 8.96875 v -2.37109 h -2.79687 V 76.8 Z m -31.576173,0.63281 -7.824219,2.27148 c -0.09536,0.26806 -0.182298,0.54487 -0.248047,0.8418 -0.182292,0.8507 -0.273437,1.87891 -0.273437,3.08203 0,1.16667 0.09483,2.1875 0.283203,3.0625 0.188368,0.86893 0.489149,1.59983 0.902344,2.19531 0.419271,0.60157 0.96072,1.05556 1.623047,1.35938 0.662326,0.29774 1.469834,0.44531 2.423828,0.44531 0.96007,0 1.771266,-0.14757 2.433593,-0.44531 0.662327,-0.30382 1.200087,-0.75043 1.613282,-1.33984 0.413194,-0.58941 0.713975,-1.32596 0.902343,-2.20704 0.188369,-0.88107 0.283204,-1.90733 0.283204,-3.08007 0,-1.13629 -0.09484,-2.14258 -0.283204,-3.01758 -0.182291,-0.875 -0.479383,-1.60959 -0.892578,-2.20508 -0.264945,-0.38398 -0.583783,-0.70023 -0.943359,-0.96289 z m -3.113281,1.63672 c 0.65625,0 1.121093,0.34093 1.394531,1.02148 0.279514,0.67448 0.419922,1.85026 0.419922,3.52735 0,1.66493 -0.140408,2.8444 -0.419922,3.53711 -0.279514,0.68663 -0.744357,1.02929 -1.394531,1.02929 -0.650175,0 -1.115018,-0.34266 -1.394532,-1.02929 -0.279514,-0.69271 -0.419922,-1.86676 -0.419922,-3.51954 0,-1.68923 0.140408,-2.87044 0.419922,-3.54492 0.279514,-0.68055 0.744357,-1.02148 1.394532,-1.02148 z m 23.771484,0 c 0.656251,0 1.121094,0.34093 1.394531,1.02148 0.279514,0.67448 0.417969,1.85026 0.417969,3.52735 0,1.66493 -0.138455,2.8444 -0.417969,3.53711 -0.279514,0.68663 -0.744357,1.02929 -1.394531,1.02929 -0.650174,0 -1.115017,-0.34266 -1.394531,-1.02929 -0.279514,-0.69271 -0.419922,-1.86676 -0.419922,-3.51954 0,-1.68923 0.140408,-2.87044 0.419922,-3.54492 0.279514,-0.68055 0.744357,-1.02148 1.394531,-1.02148 z m 23.769528,0 c 0.65625,0 1.12109,0.34093 1.39453,1.02148 0.27952,0.67448 0.41992,1.85026 0.41992,3.52735 0,1.66493 -0.1404,2.8444 -0.41992,3.53711 -0.27951,0.68663 -0.74435,1.02929 -1.39453,1.02929 -0.65017,0 -1.11502,-0.34266 -1.39453,-1.02929 -0.27951,-0.69271 -0.41797,-1.86676 -0.41797,-3.51954 0,-1.68923 0.13846,-2.87044 0.41797,-3.54492 0.27951,-0.68055 0.74436,-1.02148 1.39453,-1.02148 z m 11.88672,0 c 0.65625,0 1.12109,0.34093 1.39453,1.02148 0.27952,0.67448 0.41797,1.85026 0.41797,3.52735 0,1.66493 -0.13845,2.8444 -0.41797,3.53711 -0.27951,0.68663 -0.74436,1.02929 -1.39453,1.02929 -0.65017,0 -1.11502,-0.34266 -1.39453,-1.02929 -0.27952,-0.69271 -0.41992,-1.86676 -0.41992,-3.51954 0,-1.68923 0.1404,-2.87044 0.41992,-3.54492 0.27951,-0.68055 0.74436,-1.02148 1.39453,-1.02148 z m -69.308592,2.13672 -3.308594,0.95898 v 5.87305 h -2.861328 v 2.37109 h 8.96875 v -2.37109 h -2.798828 z m -8.662109,2.51367 -3.439453,0.99805 c -0.0506,1.09377 -0.18136,1.9092 -0.394532,2.4375 -0.279514,0.68663 -0.744357,1.02929 -1.394531,1.02929 -0.650174,0 -1.115017,-0.34266 -1.394531,-1.02929 -0.141168,-0.34986 -0.246535,-0.82519 -0.316406,-1.41993 L 26.917421,86.675 c 0.001,0.0048 9.22e-4,0.01083 0.002,0.01562 0.188369,0.86893 0.489149,1.59983 0.902344,2.19531 0.419271,0.60157 0.96072,1.05556 1.623047,1.35938 0.662327,0.29774 1.469834,0.44531 2.423828,0.44531 0.96007,0 1.771267,-0.14757 2.433594,-0.44531 0.662327,-0.30382 1.200086,-0.75043 1.613281,-1.33984 0.413195,-0.58941 0.713976,-1.32596 0.902344,-2.20704 0.182573,-0.85397 0.27368,-1.85054 0.279297,-2.97851 z m -14.873047,4.31836 -6.40625,1.85937 v 0.51172 h 8.96875 v -2.37109 z m -14.125,4.4375 c -0.923612,0 -1.720269,0.14952 -2.388672,0.44726 -0.668403,0.29167 -1.215277,0.73828 -1.640625,1.33985 -0.431424,0.61371 -0.741319,1.34657 -0.929687,2.19726 -0.182292,0.8507 -0.273438,1.87696 -0.273438,3.08008 0,1.16667 0.094835,2.1875 0.283203,3.0625 0.188368,0.86893 0.489149,1.60178 0.902344,2.19727 0.419271,0.60156 0.958767,1.0536 1.621094,1.35742 0.662327,0.29774 1.471787,0.44726 2.425781,0.44726 0.96007,0 1.771267,-0.14952 2.433594,-0.44726 0.662327,-0.30382 1.200086,-0.75043 1.613281,-1.33985 0.413195,-0.58941 0.713976,-1.324 0.902344,-2.20507 0.188368,-0.88108 0.28125,-1.90929 0.28125,-3.08203 0,-1.13629 -0.09288,-2.14063 -0.28125,-3.01563 C 12.865989,95.63984 12.566944,94.9033 12.15375,94.30781 11.734478,93.70017 11.196719,93.24444 10.540468,92.94062 9.890294,92.63073 9.077361,92.47578 8.099062,92.47578 Z m 23.769531,0 c -0.923612,0 -1.718315,0.14952 -2.386719,0.44726 -0.668403,0.29167 -1.215277,0.73828 -1.640624,1.33985 -0.431424,0.61371 -0.74132,1.34657 -0.929688,2.19726 -0.182292,0.8507 -0.273438,1.87696 -0.273438,3.08008 0,1.16667 0.09288,2.1875 0.28125,3.0625 0.188369,0.86893 0.489149,1.60178 0.902344,2.19727 0.419271,0.60156 0.96072,1.0536 1.623047,1.35742 0.662327,0.29774 1.469834,0.44726 2.423828,0.44726 0.96007,0 1.771267,-0.14952 2.433594,-0.44726 0.662327,-0.30382 1.200086,-0.75043 1.613281,-1.33985 0.413195,-0.58941 0.713976,-1.324 0.902344,-2.20507 0.188368,-0.88108 0.283203,-1.90929 0.283203,-3.08203 0,-1.13629 -0.09483,-2.14063 -0.283203,-3.01563 -0.182292,-0.875 -0.479383,-1.61154 -0.892578,-2.20703 -0.419271,-0.60764 -0.957031,-1.06337 -1.613281,-1.36719 -0.650175,-0.30989 -1.46506,-0.46484 -2.44336,-0.46484 z m 35.65625,0 c -0.923612,0 -1.718315,0.14952 -2.386719,0.44726 -0.668403,0.29167 -1.215277,0.73828 -1.640624,1.33985 -0.431424,0.61371 -0.74132,1.34657 -0.929688,2.19726 -0.182292,0.8507 -0.273438,1.87696 -0.273438,3.08008 0,1.16667 0.09288,2.1875 0.28125,3.0625 0.188369,0.86893 0.489149,1.60178 0.902344,2.19727 0.419271,0.60156 0.96072,1.0536 1.623047,1.35742 0.662327,0.29774 1.469834,0.44726 2.423828,0.44726 0.96007,0 1.771267,-0.14952 2.433594,-0.44726 0.662327,-0.30382 1.200086,-0.75043 1.613281,-1.33985 0.413195,-0.58941 0.713976,-1.324 0.902344,-2.20507 0.188368,-0.88108 0.283203,-1.90929 0.283203,-3.08203 0,-1.13629 -0.09484,-2.14063 -0.283203,-3.01563 -0.182292,-0.875 -0.479383,-1.61154 -0.892578,-2.20703 -0.419271,-0.60764 -0.957031,-1.06337 -1.613281,-1.36719 -0.650175,-0.30989 -1.46506,-0.46484 -2.44336,-0.46484 z m 35.656247,0 c -0.92361,0 -1.71831,0.14952 -2.38672,0.44726 -0.6684,0.29167 -1.215268,0.73828 -1.640618,1.33985 -0.43143,0.61371 -0.74132,1.34657 -0.92969,2.19726 -0.18229,0.8507 -0.27344,1.87696 -0.27344,3.08008 0,1.16667 0.09288,2.1875 0.28125,3.0625 0.18837,0.86893 0.48915,1.60178 0.90235,2.19727 0.41927,0.60156 0.960718,1.0536 1.623038,1.35742 0.66233,0.29774 1.46984,0.44726 2.42383,0.44726 0.96007,0 1.77127,-0.14952 2.4336,-0.44726 0.66232,-0.30382 1.20008,-0.75043 1.61328,-1.33985 0.41319,-0.58941 0.71397,-1.324 0.90234,-2.20507 0.18837,-0.88108 0.2832,-1.90929 0.2832,-3.08203 0,-1.13629 -0.0948,-2.14063 -0.2832,-3.01563 -0.18229,-0.875 -0.47938,-1.61154 -0.89258,-2.20703 -0.41927,-0.60764 -0.95703,-1.06337 -1.61328,-1.36719 -0.65017,-0.30989 -1.46506,-0.46484 -2.44336,-0.46484 z m -84.164059,0.23828 c -0.02431,0.36458 -0.117188,0.67079 -0.28125,0.91992 -0.157986,0.24306 -0.384115,0.43815 -0.675781,0.58399 -0.249133,0.12152 -0.578993,0.20898 -0.992188,0.26367 -0.413195,0.05469 -0.830729,0.08203 -1.25,0.08203 v 2.21484 h 2.863281 v 7.17383 h -2.863281 v 2.36914 h 8.96875 v -2.36914 H 21.989687 V 92.71406 Z m 23.771484,0 c -0.0243,0.36458 -0.11914,0.67079 -0.283203,0.91992 -0.157986,0.24306 -0.382161,0.43815 -0.673828,0.58399 -0.249132,0.12152 -0.580946,0.20898 -0.994141,0.26367 -0.413195,0.05469 -0.828775,0.08203 -1.248047,0.08203 v 2.21484 h 2.861328 v 7.17383 h -2.861328 v 2.36914 h 8.96875 v -2.36914 H 45.759218 V 92.71406 Z m 11.884766,0 c -0.02431,0.36458 -0.117188,0.67079 -0.28125,0.91992 -0.157986,0.24306 -0.384115,0.43815 -0.675781,0.58399 -0.249133,0.12152 -0.578993,0.20898 -0.992188,0.26367 -0.413195,0.05469 -0.830729,0.08203 -1.25,0.08203 v 2.21484 h 2.863281 v 7.17383 h -2.863281 v 2.36914 h 8.96875 v -2.36914 H 57.645937 V 92.71406 Z m 23.771484,0 c -0.0243,0.36458 -0.11914,0.67079 -0.283203,0.91992 -0.157986,0.24306 -0.382161,0.43815 -0.673828,0.58399 -0.249132,0.12152 -0.580946,0.20898 -0.994141,0.26367 -0.413195,0.05469 -0.828775,0.08203 -1.248047,0.08203 v 2.21484 h 2.861328 v 7.17383 h -2.861328 v 2.36914 h 8.96875 v -2.36914 H 81.415468 V 92.71406 Z m 11.884767,0 c -0.02431,0.36458 -0.11719,0.67079 -0.28125,0.91992 -0.15799,0.24306 -0.38412,0.43815 -0.675782,0.58399 -0.249133,0.12152 -0.578993,0.20898 -0.992188,0.26367 -0.413195,0.05469 -0.830729,0.08203 -1.25,0.08203 v 2.21484 h 2.86328 v 7.17383 h -2.86328 v 2.36914 h 8.96875 v -2.36914 h -2.79687 V 92.71406 Z m 23.771478,0 c -0.0243,0.36458 -0.11914,0.67079 -0.2832,0.91992 -0.15799,0.24306 -0.38216,0.43815 -0.67383,0.58399 -0.24913,0.12152 -0.58094,0.20898 -0.99414,0.26367 -0.41319,0.05469 -0.82877,0.08203 -1.24805,0.08203 v 2.21484 h 2.86133 v 7.17383 h -2.86133 v 2.36914 h 8.96875 v -2.36914 h -2.79882 V 92.71406 Z M 8.099062,94.98359 c 0.656251,0 1.121094,0.33898 1.394531,1.01953 0.279514,0.67448 0.417969,1.85026 0.417969,3.52735 0,1.66493 -0.138455,2.8444 -0.417969,3.5371 -0.279514,0.68664 -0.744357,1.0293 -1.394531,1.0293 -0.650174,0 -1.115017,-0.34266 -1.394531,-1.0293 -0.279514,-0.6927 -0.419922,-1.86479 -0.419922,-3.51757 0,-1.68924 0.140408,-2.8724 0.419922,-3.54688 0.279514,-0.68055 0.744357,-1.01953 1.394531,-1.01953 z m 23.769531,0 c 0.656251,0 1.121094,0.33898 1.394531,1.01953 0.279515,0.67448 0.419922,1.85026 0.419922,3.52735 0,1.66493 -0.140407,2.8444 -0.419922,3.5371 -0.279514,0.68664 -0.744357,1.0293 -1.394531,1.0293 -0.650174,0 -1.115017,-0.34266 -1.394531,-1.0293 -0.279514,-0.6927 -0.417969,-1.86479 -0.417969,-3.51757 0,-1.68924 0.138455,-2.8724 0.417969,-3.54688 0.279514,-0.68055 0.744357,-1.01953 1.394531,-1.01953 z m 35.65625,0 c 0.656251,0 1.121094,0.33898 1.394531,1.01953 0.279515,0.67448 0.419922,1.85026 0.419922,3.52735 0,1.66493 -0.140407,2.8444 -0.419922,3.5371 -0.279514,0.68664 -0.744357,1.0293 -1.394531,1.0293 -0.650174,0 -1.115017,-0.34266 -1.394531,-1.0293 -0.279514,-0.6927 -0.417969,-1.86479 -0.417969,-3.51757 0,-1.68924 0.138455,-2.8724 0.417969,-3.54688 0.279514,-0.68055 0.744357,-1.01953 1.394531,-1.01953 z m 35.656247,0 c 0.65625,0 1.12109,0.33898 1.39453,1.01953 0.27952,0.67448 0.41992,1.85026 0.41992,3.52735 0,1.66493 -0.1404,2.8444 -0.41992,3.5371 -0.27951,0.68664 -0.74435,1.0293 -1.39453,1.0293 -0.65017,0 -1.11502,-0.34266 -1.39453,-1.0293 -0.27951,-0.6927 -0.41797,-1.86479 -0.41797,-3.51757 0,-1.68924 0.13846,-2.8724 0.41797,-3.54688 0.27951,-0.68055 0.74436,-1.01953 1.39453,-1.01953 z m -95.082028,13.4043 c -0.923612,0 -1.720269,0.14952 -2.388672,0.44726 -0.078543,0.0343 -0.149422,0.0786 -0.224609,0.11719 l 7.710937,4.4707 c -0.04303,-0.3416 -0.08191,-0.68708 -0.148437,-0.99609 -0.182292,-0.875 -0.481337,-1.61154 -0.894531,-2.20703 -0.419272,-0.60764 -0.957031,-1.06337 -1.613282,-1.36719 -0.650174,-0.30989 -1.463107,-0.46484 -2.441406,-0.46484 z m 11.884766,0 c -0.923612,0 -1.720269,0.14952 -2.388672,0.44726 -0.668404,0.29167 -1.215278,0.73828 -1.640625,1.33985 -0.431424,0.61371 -0.74132,1.34657 -0.929688,2.19726 -0.122238,0.57045 -0.188246,1.2496 -0.228515,1.97852 l 3.392578,1.96679 c -0.0097,-0.27448 -0.01953,-0.54768 -0.01953,-0.85546 10e-7,-1.68924 0.140408,-2.8724 0.419922,-3.54688 0.279514,-0.68055 0.744357,-1.01953 1.394532,-1.01953 0.65625,0 1.121093,0.33898 1.394531,1.01953 0.279514,0.67448 0.419922,1.85026 0.419922,3.52734 0,1.20364 -0.07657,2.14433 -0.222657,2.83985 l 2.886719,1.67383 c 0.196275,-0.42632 0.356732,-0.89855 0.470703,-1.43164 0.188369,-0.88108 0.283204,-1.90929 0.283204,-3.08204 0,-1.13628 -0.09483,-2.14062 -0.283204,-3.01562 -0.182291,-0.875 -0.479383,-1.61154 -0.892578,-2.20703 -0.419271,-0.60764 -0.95703,-1.06337 -1.613281,-1.36719 -0.650174,-0.30989 -1.46506,-0.46484 -2.443359,-0.46484 z m 23.771484,0 c -0.923612,0 -1.720269,0.14952 -2.388672,0.44726 -0.668403,0.29167 -1.215277,0.73828 -1.640625,1.33985 -0.431424,0.61371 -0.741319,1.34657 -0.929687,2.19726 -0.182292,0.8507 -0.273438,1.87695 -0.273438,3.08008 0,1.16667 0.09484,2.1875 0.283203,3.0625 0.188368,0.86892 0.489149,1.60178 0.902344,2.19727 0.419271,0.60156 0.958767,1.0536 1.621094,1.35742 0.662327,0.29774 1.471787,0.44726 2.425781,0.44726 0.96007,0 1.771267,-0.14952 2.433594,-0.44726 0.662327,-0.30382 1.200086,-0.75044 1.613281,-1.33985 0.413195,-0.58941 0.713976,-1.324 0.902344,-2.20507 0.188368,-0.88108 0.28125,-1.90929 0.28125,-3.08204 0,-1.13628 -0.09288,-2.14062 -0.28125,-3.01562 -0.182292,-0.875 -0.481337,-1.61154 -0.894531,-2.20703 -0.419272,-0.60764 -0.957031,-1.06337 -1.613282,-1.36719 -0.650174,-0.30989 -1.463107,-0.46484 -2.441406,-0.46484 z m 47.54102,0 c -0.92362,0 -1.720273,0.14952 -2.388676,0.44726 -0.668404,0.29167 -1.215278,0.73828 -1.640625,1.33985 -0.431424,0.61371 -0.74132,1.34657 -0.929688,2.19726 -0.182292,0.8507 -0.273437,1.87695 -0.273437,3.08008 0,1.16667 0.09484,2.1875 0.283203,3.0625 0.188368,0.86892 0.489149,1.60178 0.902344,2.19727 0.419271,0.60156 0.96072,1.0536 1.623047,1.35742 0.662326,0.29774 1.469832,0.44726 2.423832,0.44726 0.96007,0 1.77126,-0.14952 2.43359,-0.44726 0.66233,-0.30382 1.20009,-0.75044 1.61328,-1.33985 0.4132,-0.58941 0.71398,-1.324 0.90234,-2.20507 0.18837,-0.88108 0.28321,-1.90929 0.28321,-3.08204 0,-1.13628 -0.09484,-2.14062 -0.28321,-3.01562 -0.18229,-0.875 -0.47938,-1.61154 -0.89257,-2.20703 -0.41927,-0.60764 -0.95703,-1.06337 -1.61328,-1.36719 -0.65018,-0.30989 -1.46506,-0.46484 -2.44336,-0.46484 z m -60.392582,0.23828 c -0.02431,0.36458 -0.119141,0.67079 -0.283204,0.91992 -0.157986,0.24306 -0.382161,0.43815 -0.673828,0.58398 -0.249132,0.12153 -0.580946,0.20899 -0.99414,0.26368 -0.413195,0.0547 -0.828776,0.082 -1.248047,0.082 v 2.21484 h 2.861328 v 7.17383 h -2.861328 v 1.9707 l 0.6875,0.39844 h 8.28125 v -2.36914 h -2.798828 v -11.23828 z m 23.769531,0 c -0.02431,0.36458 -0.117188,0.67079 -0.28125,0.91992 -0.157986,0.24306 -0.384115,0.43815 -0.675781,0.58398 -0.249133,0.12153 -0.578993,0.20899 -0.992188,0.26368 -0.413195,0.0547 -0.830729,0.082 -1.25,0.082 v 2.21484 h 2.863281 v 7.17383 h -2.863281 v 2.36914 h 8.96875 v -2.36914 h -2.796875 v -11.23828 z m 11.886719,0 c -0.02431,0.36458 -0.119141,0.67079 -0.283204,0.91992 -0.157986,0.24306 -0.382161,0.43815 -0.673828,0.58398 -0.249132,0.12153 -0.580946,0.20899 -0.99414,0.26368 -0.413195,0.0547 -0.828776,0.082 -1.248047,0.082 v 2.21484 h 2.861328 v 7.17383 h -2.861328 v 2.36914 h 8.96875 v -2.36914 h -2.798828 v -11.23828 z m 11.884765,0 c -0.0243,0.36458 -0.11914,0.67079 -0.283203,0.91992 -0.157986,0.24306 -0.382161,0.43815 -0.673828,0.58398 -0.249132,0.12153 -0.580946,0.20899 -0.994141,0.26368 -0.413195,0.0547 -0.828775,0.082 -1.248047,0.082 v 2.21484 h 2.861328 v 7.17383 h -2.861328 v 2.36914 h 8.96875 v -2.36914 h -2.798828 v -11.23828 z m 23.771485,0 c -0.0243,0.36458 -0.11914,0.67079 -0.28321,0.91992 -0.15798,0.24306 -0.38216,0.43815 -0.67382,0.58398 -0.24914,0.12153 -0.58095,0.20899 -0.99414,0.26368 -0.413198,0.0547 -0.828778,0.082 -1.248048,0.082 v 2.21484 h 2.861328 v 5.87891 l 3.30859,-1.91797 v -8.02539 z m 11.88476,0 c -0.0243,0.36458 -0.11914,0.67079 -0.2832,0.91992 -0.15799,0.24306 -0.38216,0.43815 -0.67383,0.58398 -0.24913,0.12153 -0.58094,0.20899 -0.99414,0.26368 -0.41319,0.0547 -0.82877,0.082 -1.24805,0.082 v 2.21484 h 1.11719 l 5.05274,-2.92969 v -1.13476 z m -70.345698,2.26953 c 0.656251,0 1.121094,0.33898 1.394531,1.01953 0.279514,0.67448 0.417969,1.85026 0.417969,3.52734 0,1.66494 -0.138455,2.84441 -0.417969,3.53711 -0.279514,0.68664 -0.744357,1.0293 -1.394531,1.0293 -0.650174,0 -1.115017,-0.34266 -1.394531,-1.0293 -0.279514,-0.6927 -0.419922,-1.86479 -0.419922,-3.51757 0,-1.68924 0.140408,-2.8724 0.419922,-3.54688 0.279514,-0.68055 0.744357,-1.01953 1.394531,-1.01953 z m 47.54102,0 c 0.65625,0 1.12109,0.33898 1.39453,1.01953 0.27951,0.67448 0.41992,1.85026 0.41992,3.52734 0,1.66494 -0.14041,2.84441 -0.41992,3.53711 -0.27952,0.68664 -0.74436,1.0293 -1.39453,1.0293 -0.65018,0 -1.11502,-0.34266 -1.39454,-1.0293 -0.27951,-0.6927 -0.419918,-1.86479 -0.419918,-3.51757 10e-7,-1.68924 0.140408,-2.8724 0.419918,-3.54688 0.27952,-0.68055 0.74436,-1.01953 1.39454,-1.01953 z m 7.7207,8.96875 v 0.36523 l 0.6289,-0.36523 z m -31.492189,4.4375 c -0.923612,0 -1.718315,0.14757 -2.386719,0.44531 -0.668403,0.29167 -1.215277,0.73828 -1.640624,1.33985 -0.431424,0.61371 -0.74132,1.34657 -0.929688,2.19726 -0.182292,0.8507 -0.273438,1.87695 -0.273438,3.08008 0,1.16667 0.09288,2.1875 0.28125,3.0625 0.188369,0.86892 0.489149,1.60178 0.902344,2.19727 0.419271,0.60156 0.96072,1.0536 1.623047,1.35742 0.662327,0.29774 1.469834,0.44726 2.423828,0.44726 0.03921,0 0.07457,-0.003 0.113281,-0.004 l 4.34961,-2.52149 c 0.203784,-0.43478 0.369309,-0.91945 0.486328,-1.46679 0.188368,-0.88108 0.283203,-1.90734 0.283203,-3.08008 0,-1.13629 -0.09484,-2.14258 -0.283203,-3.01758 -0.182292,-0.875 -0.479383,-1.60959 -0.892578,-2.20508 -0.419271,-0.60764 -0.957031,-1.06337 -1.613281,-1.36719 -0.650175,-0.30989 -1.46506,-0.46484 -2.44336,-0.46484 z m 11.886719,0 c -0.923612,0 -1.720269,0.14757 -2.388672,0.44531 -0.668403,0.29167 -1.215277,0.73828 -1.640625,1.33985 -0.431424,0.61371 -0.741319,1.34657 -0.929687,2.19726 -0.182292,0.8507 -0.273438,1.87695 -0.273438,3.08008 0,1.16667 0.09483,2.1875 0.283203,3.0625 0.0027,0.0122 0.0071,0.023 0.0098,0.0352 l 3.158203,-1.83204 c -0.02148,-0.38437 -0.0332,-0.79771 -0.0332,-1.25585 0,-1.68924 0.140408,-2.87045 0.419922,-3.54493 0.279514,-0.68055 0.744357,-1.02148 1.394531,-1.02148 0.656251,0 1.121094,0.34093 1.394531,1.02148 0.231561,0.55877 0.360664,1.48166 0.400391,2.72852 l 3.207031,-1.86133 c -0.02084,-0.11505 -0.02887,-0.24656 -0.05273,-0.35742 -0.182292,-0.875 -0.481337,-1.60959 -0.894531,-2.20508 -0.419272,-0.60764 -0.957031,-1.06337 -1.613282,-1.36719 -0.650174,-0.30989 -1.463107,-0.46484 -2.441406,-0.46484 z m 11.88477,0 c -0.92362,0 -1.720273,0.14757 -2.388676,0.44531 -0.668404,0.29167 -1.215278,0.73828 -1.640625,1.33985 -0.279747,0.39795 -0.502136,0.85202 -0.679688,1.34961 l 5.359379,-3.10743 c -0.20869,-0.0166 -0.42416,-0.0273 -0.65039,-0.0273 z m -58.931645,0.23633 1.509766,0.875 v -0.875 z m 10.423828,0 c -0.0243,0.36458 -0.11914,0.67079 -0.283203,0.91992 -0.157986,0.24306 -0.382161,0.43815 -0.673828,0.58398 -0.249132,0.12153 -0.580946,0.20899 -0.994141,0.26368 -0.413195,0.0547 -0.828775,0.082 -1.248047,0.082 v 2.21484 h 2.861328 v 1.7832 l 3.308594,1.91797 v -7.76562 z m 11.884766,0 c -0.02431,0.36458 -0.117188,0.67079 -0.28125,0.91992 -0.157986,0.24306 -0.384115,0.43815 -0.675781,0.58398 -0.249133,0.12153 -0.578993,0.20899 -0.992188,0.26368 -0.413195,0.0547 -0.830729,0.082 -1.25,0.082 v 2.21484 h 2.863281 v 7.17383 H 51.7475 l 4.083984,2.36914 h 4.611328 v -2.36914 h -2.796875 v -11.23828 z m 12.851562,2.26953 c 0.656251,0 1.121094,0.34093 1.394531,1.02148 0.279515,0.67448 0.419922,1.85026 0.419922,3.52735 0,1.66493 -0.140407,2.84244 -0.419922,3.53515 -0.279514,0.68664 -0.744357,1.03125 -1.394531,1.03125 -0.650174,0 -1.115017,-0.34461 -1.394531,-1.03125 -0.279514,-0.69271 -0.417969,-1.8648 -0.417969,-3.51757 0,-1.68924 0.138455,-2.87045 0.417969,-3.54493 0.279514,-0.68055 0.744357,-1.02148 1.394531,-1.02148 z" /><polyline
     transform="translate(0,-3.1185063e-5)"
     points="2.285 37.429 2.285 106.799 62.105 141.486 121.926 106.799 121.926 37.429 62.105 2.743 2.285 37.429"
     style="fill:none;fill-opacity:1;fill-rule:nonzero;stroke:#008a00;stroke-width:4;stroke-linecap:round;stroke-linejoin:round;stroke-miterlimit:10;stroke-opacity:0.99005"
     clip-path="url(#cpMHwxMjQuNDQxfDE0My45OTd8MC4xNDMxMzc=)"
     id="polyline29-34-3"
     inkscape:export-xdpi="153.38"
     inkscape:export-ydpi="153.38" /><path
     id="path780"
     style="fill:#6aade4;fill-opacity:1;stroke:none;stroke-width:0.557341;stroke-linejoin:round;stroke-miterlimit:10;stop-color:#000000"
     d="M 69.466797 54.800781 L 59.246094 57.966797 A 3.8047791 3.8047791 0 0 0 56.306641 55.042969 A 3.8047791 3.8047791 0 0 0 51.804688 57.988281 A 3.8047791 3.8047791 0 0 0 52.011719 60.210938 L 42.861328 63.046875 A 15.219116 15.219116 0 0 0 51.224609 68.011719 A 15.219116 15.219116 0 0 0 52.761719 68.248047 L 46.755859 70.109375 L 45.335938 76.365234 L 5.5117188 87.662109 L 9.8398438 112.13086 L 51.199219 100.40039 L 58.130859 106.8125 L 79.320312 100.24609 L 81.216797 91.886719 L 122.34766 80.220703 L 118.01758 55.75 L 74.642578 68.052734 L 75 70.068359 L 67.947266 63.541016 L 64.210938 64.699219 A 15.219116 15.219116 0 0 0 69.238281 56.230469 A 15.219116 15.219116 0 0 0 69.466797 54.800781 z M 103.125 94.652344 C 103.07917 94.644118 103.04355 94.695575 103.03125 94.794922 C 103.01373 94.937046 103.30498 96.976772 103.54883 98.412109 C 103.63409 98.914273 103.6965 99.336293 103.6875 99.351562 C 103.67823 99.366864 103.40868 99.27035 103.08789 99.136719 C 101.4258 98.444375 101.45595 98.453958 101.43555 98.615234 C 101.42703 98.682606 102.39252 99.434641 103.13086 99.935547 C 103.269 100.02927 103.34712 100.11313 103.32812 100.14453 C 103.29318 100.20221 102.33743 100.50177 100.54297 101.01953 C 99.897469 101.20581 99.336022 101.3796 99.294922 101.4043 C 99.211322 101.45445 99.218894 101.56475 99.308594 101.59375 C 99.367454 101.6128 100.45476 101.48921 101.33203 101.36328 C 101.59266 101.32589 102.12983 101.24841 102.52539 101.19141 C 103.55629 101.0428 103.57789 101.04699 103.4707 101.33398 C 103.40976 101.49717 102.88782 102.57945 102.70703 102.91797 C 102.46303 103.37483 102.65812 103.45191 102.99023 103.0293 C 103.44158 102.45493 103.61166 102.24955 103.78516 102.06836 C 103.88253 101.96668 104.00921 101.83198 104.06641 101.76758 C 104.12374 101.7032 104.19034 101.64467 104.21484 101.63867 C 104.29433 101.61916 104.42349 101.89346 104.58594 102.42969 C 104.67344 102.7185 104.87595 103.36516 105.03711 103.86523 C 105.19826 104.36528 105.44293 105.13377 105.58008 105.57227 C 105.89129 106.56732 105.93443 106.69314 105.98633 106.74414 L 105.98828 106.74414 C 106.03948 106.79444 106.15078 106.77233 106.17188 106.70703 C 106.1804 106.68067 106.09067 106.12328 105.9707 105.46875 C 105.85074 104.81422 105.65494 103.74911 105.53711 103.10352 C 105.41924 102.45794 105.29687 101.81989 105.26367 101.68555 C 105.22117 101.51396 105.22077 101.43019 105.26367 101.40039 C 105.32958 101.35462 105.64008 101.48059 106.64453 101.96094 C 107.23671 102.2441 107.4738 102.30043 107.4375 102.15234 C 107.41793 102.07258 107.17472 101.85624 106.37891 101.20898 C 106.03691 100.93082 105.75019 100.67713 105.74219 100.64453 C 105.73416 100.6118 105.79355 100.55684 105.87305 100.52344 C 106.04868 100.44954 108.73163 99.684829 109.18359 99.580078 C 109.55497 99.493911 109.66458 99.439319 109.64258 99.349609 C 109.61851 99.251539 109.57289 99.248639 108.94336 99.324219 C 108.61977 99.363074 108.20381 99.411058 108.01953 99.429688 C 107.68714 99.463347 106.42282 99.614507 105.875 99.685547 C 105.60038 99.721154 105.46151 99.699297 105.44141 99.617188 C 105.42901 99.566682 105.87327 98.649748 106.14844 98.160156 C 106.26643 97.950145 106.35952 97.759628 106.35352 97.736328 C 106.34772 97.713008 106.30747 97.67751 106.26367 97.65625 C 106.16818 97.609876 105.97685 97.755536 105.80664 98.005859 C 105.70226 98.159368 105.15942 98.796567 104.94141 99.021484 C 104.69295 99.277822 104.62164 99.200897 104.39258 98.429688 C 104.2956 98.103175 104.08365 97.427639 103.92188 96.927734 C 103.76012 96.427823 103.53454 95.724999 103.41992 95.367188 C 103.30534 95.009364 103.19463 94.700047 103.17383 94.679688 C 103.15706 94.663207 103.14028 94.655086 103.125 94.652344 z M 84.251953 97.226562 C 84.222829 97.238436 84.203373 97.288757 84.173828 97.386719 C 84.13265 97.52326 84.158376 97.717548 84.335938 98.585938 C 84.452444 99.155653 84.638204 100.09078 84.748047 100.66406 C 84.857919 101.23733 84.965138 101.73122 84.986328 101.76172 C 85.007513 101.79221 85.098963 102.20658 85.189453 102.68164 C 85.279912 103.1567 85.390187 103.72321 85.435547 103.94141 C 85.702359 105.2251 85.898772 106.40902 85.857422 106.48242 C 85.802155 106.58048 85.574361 106.51629 84.904297 106.2207 C 84.656127 106.11123 84.123288 105.87981 83.720703 105.70508 C 83.31812 105.53036 82.952323 105.36082 82.908203 105.32812 C 82.864072 105.29543 82.806627 105.27425 82.779297 105.28125 C 82.751998 105.28795 82.663764 105.25709 82.583984 105.21289 C 82.425747 105.12519 82.169887 105.08858 82.085938 105.14258 C 81.961093 105.22299 82.115194 105.37252 82.791016 105.82031 C 83.185706 106.08182 83.682178 106.41769 83.894531 106.56836 C 84.106884 106.71904 84.498593 106.98508 84.763672 107.1582 C 85.028746 107.33132 85.251266 107.50046 85.259766 107.53516 C 85.295425 107.68046 85.047612 107.82371 84.271484 108.09961 C 83.477217 108.38194 81.868453 108.98825 81.261719 109.23438 C 80.930463 109.36874 80.384999 109.57537 80.048828 109.69531 C 79.287233 109.96704 79.016996 110.1741 79.242188 110.31055 C 79.34368 110.37204 79.879468 110.27663 81.759766 109.86328 C 82.999515 109.59079 85.303275 109.12312 85.486328 109.10742 C 85.598982 109.09772 85.648533 109.12029 85.664062 109.18359 C 85.675901 109.23182 85.336695 110.09127 84.908203 111.09375 C 84.322281 112.46455 84.136236 112.94742 84.160156 113.04492 C 84.212578 113.25853 84.352736 113.16894 84.59375 112.76758 C 84.98188 112.12121 85.790908 110.93082 86.550781 109.88672 C 86.755097 109.60597 86.846781 109.75514 87.332031 111.17773 C 87.531595 111.76279 87.754265 112.40384 87.828125 112.60156 C 88.15379 113.47316 88.97592 115.85226 89.03125 116.08398 C 89.055631 116.18593 89.147798 116.43887 89.236328 116.64648 C 89.324845 116.8541 89.50094 117.35166 89.628906 117.75195 C 89.981344 118.85451 89.984075 118.85705 90.097656 118.96289 C 90.203603 119.06162 90.242173 119.05091 90.357422 118.89062 C 90.408533 118.81953 90.354337 118.56343 89.908203 116.71484 C 89.392765 114.57918 88.544572 110.79088 88.353516 109.77539 C 88.267486 109.31813 88.260156 109.20744 88.316406 109.18164 C 88.354455 109.16421 88.756823 109.31471 89.208984 109.51562 C 89.661153 109.71656 90.150028 109.93345 90.296875 109.99805 C 90.443718 110.06259 90.707593 110.17941 90.882812 110.25781 C 91.922228 110.72297 92.213475 110.80573 92.234375 110.64062 C 92.240175 110.59438 92.215741 110.52072 92.181641 110.47852 C 92.118991 110.40085 91.566524 110.01939 90.476562 109.30273 C 90.147869 109.0866 89.764077 108.82802 89.625 108.72852 C 89.485916 108.62904 89.314141 108.52193 89.244141 108.49023 C 89.079668 108.41562 88.836062 108.17547 88.857422 108.10938 C 88.86654 108.08125 88.960176 108.02613 89.064453 107.98633 C 89.168724 107.94654 89.424898 107.84883 89.634766 107.76953 C 90.450706 107.46114 93.802674 106.15507 94.246094 105.97266 C 94.943013 105.68597 95.038283 105.62685 95.039062 105.47852 C 95.039462 105.39555 95.013544 105.34247 94.964844 105.32617 C 94.924134 105.31249 94.663032 105.35828 94.382812 105.42578 C 94.102643 105.49349 93.429541 105.63348 92.888672 105.73828 C 92.347782 105.84302 91.466062 106.02922 90.929688 106.15234 C 89.446444 106.4927 88.435485 106.68285 88.421875 106.62305 C 88.410925 106.57547 88.730016 105.79688 88.962891 105.30273 C 89.018801 105.1841 89.125882 104.94667 89.201172 104.77539 C 89.27647 104.6041 89.485571 104.1592 89.664062 103.78711 C 90.087517 102.90428 90.144037 102.74031 90.060547 102.66211 C 90.024769 102.62851 89.952357 102.61867 89.898438 102.63867 C 89.811269 102.671 89.483185 103.12579 87.923828 105.37891 C 87.693368 105.7119 87.493259 105.98723 87.480469 105.99023 C 87.328203 106.02403 87.160295 105.58222 86.455078 103.29883 C 86.179315 102.40596 85.74319 101.09816 85.433594 100.23828 C 85.353268 100.01517 85.190055 99.536138 85.072266 99.173828 C 84.581695 97.665045 84.483356 97.392641 84.384766 97.300781 C 84.320623 97.241005 84.281078 97.214689 84.251953 97.226562 z M 98.378906 103.86719 C 98.36201 103.87905 98.344728 103.9023 98.330078 103.9375 C 98.296748 104.01739 98.326533 104.20505 98.445312 104.69531 C 98.812382 106.20768 99.464031 109.06527 99.457031 109.13477 C 99.453191 109.17618 99.518316 109.53434 99.603516 109.93164 C 99.776345 110.73763 99.790278 110.86777 99.705078 110.88867 C 99.632078 110.90659 98.645671 110.4734 97.988281 110.13477 C 97.105662 109.68015 96.873241 109.57149 96.806641 109.58789 C 96.716261 109.61008 96.799298 109.79234 96.955078 109.91211 C 97.038718 109.97642 97.128597 110.04571 97.154297 110.06641 C 97.180017 110.08708 97.468742 110.29624 97.794922 110.5293 C 98.852781 111.28513 98.97985 111.37836 99.15625 111.52734 C 99.2518 111.60809 99.331984 111.71021 99.333984 111.75391 C 99.340904 111.89104 99.224917 111.93066 95.96875 112.89258 C 93.939532 113.492 93.866666 113.51594 93.884766 113.58984 C 93.894546 113.62974 93.969663 113.65439 94.070312 113.65039 C 94.330852 113.63962 96.016282 113.36083 97.087891 113.15039 C 97.61555 113.04675 98.345158 112.92175 98.710938 112.87305 C 99.076697 112.82436 99.402294 112.77753 99.433594 112.76953 C 99.464974 112.76193 99.515222 112.80132 99.544922 112.85742 C 99.606572 112.97399 99.561338 113.11957 99.267578 113.73633 C 99.160738 113.96063 99.008187 114.28625 98.929688 114.46094 C 98.799808 114.74983 98.65946 115.03356 98.34375 115.64453 C 98.25275 115.82053 98.246147 115.86309 98.310547 115.87109 C 98.387707 115.88085 98.891128 115.29088 99.173828 114.85938 C 99.242558 114.75455 99.312425 114.66416 99.328125 114.66016 C 99.343925 114.65605 99.466583 114.51071 99.601562 114.33594 C 100.00887 113.80855 100.32816 113.43282 100.38086 113.41992 C 100.45303 113.40221 100.49364 113.49287 100.71484 114.14844 C 100.82414 114.47236 100.98311 114.93016 101.06641 115.16602 C 101.1497 115.4019 101.35453 116.01326 101.52148 116.52539 C 101.68844 117.03752 101.89788 117.67054 101.98828 117.93164 C 102.07872 118.19274 102.29749 118.85615 102.47461 119.40625 C 102.65173 119.95635 102.81158 120.42978 102.83008 120.45898 C 102.84868 120.48818 102.88315 120.50695 102.90625 120.50195 C 103.02299 120.4733 102.99164 120.26049 102.62891 118.6582 C 102.19766 116.75331 101.68711 114.37388 101.54688 113.61328 C 101.44347 113.05254 101.45642 113.02208 101.76172 113.14258 C 101.85595 113.17977 102.31943 113.3826 102.79102 113.59375 C 103.26261 113.8049 103.72014 114.00205 103.80664 114.03125 C 103.89318 114.06045 104.08405 114.14189 104.23047 114.21289 C 104.47965 114.33369 104.49989 114.33649 104.55469 114.24609 C 104.61929 114.13945 104.68574 114.19513 103.82031 113.63281 C 103.63885 113.5149 103.22191 113.21949 102.89258 112.97656 C 102.56325 112.73362 102.21103 112.47625 102.11133 112.40625 C 101.89375 112.25364 101.85091 112.13797 101.98633 112.07227 C 102.07606 112.02877 102.74003 111.81548 104.95312 111.11914 C 105.37891 110.98516 106.094 110.77994 106.54297 110.66211 C 107.33023 110.45547 107.49574 110.38379 107.46484 110.25781 C 107.44765 110.18777 107.28101 110.20995 105.75391 110.48828 C 104.30772 110.75185 103.90373 110.82887 102.52148 111.10352 C 101.83875 111.23922 101.7406 111.24632 101.6875 111.16992 C 101.66579 111.13868 101.71859 110.95366 101.80469 110.75977 C 101.8908 110.56588 101.98573 110.33785 102.01562 110.25195 C 102.0852 110.05242 102.47847 109.22815 102.76953 108.67188 C 102.99012 108.2502 103.02737 108.11143 102.9082 108.14062 C 102.87556 108.14862 102.6469 108.42109 102.40039 108.74609 C 102.15389 109.0711 101.90144 109.38998 101.83984 109.45508 C 101.77826 109.52019 101.62248 109.7245 101.49219 109.9082 C 101.02059 110.57308 100.89513 110.68199 100.77148 110.54102 C 100.73741 110.50217 100.60815 110.16339 100.48438 109.78906 C 100.36063 109.41472 100.1729 108.87595 100.06641 108.5918 C 99.844866 108.00066 99.582963 107.23516 99.277344 106.28516 C 98.792744 104.77881 98.485141 103.90019 98.431641 103.86719 C 98.412806 103.85554 98.395802 103.85533 98.378906 103.86719 z " /></svg>
